<?xml version="1.0" encoding="UTF-8" standalone="no"?>
<!-- Uploaded to: SVG Repo, www.svgrepo.com, Generator: SVG Repo Mixer Tools -->

<svg
   version="1.1"
   id="Uploaded to svgrepo.com"
   width="800px"
   height="800px"
   viewBox="0 0 32 32"
   xml:space="preserve"
   sodipodi:docname="select_opacity.svg"
   inkscape:version="1.3 (0e150ed6c4, 2023-07-21)"
   xmlns:inkscape="http://www.inkscape.org/namespaces/inkscape"
   xmlns:sodipodi="http://sodipodi.sourceforge.net/DTD/sodipodi-0.dtd"
   xmlns:xlink="http://www.w3.org/1999/xlink"
   xmlns="http://www.w3.org/2000/svg"
   xmlns:svg="http://www.w3.org/2000/svg"><defs
   id="defs1"><linearGradient
     x1="169.27542"
     y1="7.6329279"
     x2="169"
     y2="22.362183"
     id="linearGradient10736"
     xlink:href="#linearGradient6935"
     gradientUnits="userSpaceOnUse"
     gradientTransform="matrix(0.93513011,-0.93513011,0.93513011,0.93513011,48.841877,196.8352)" /><linearGradient
     id="linearGradient6935"><stop
       id="stop6937"
       style="stop-color:#666666;stop-opacity:1"
       offset="0" /><stop
       id="stop6939"
       style="stop-color:#1a1a1a;stop-opacity:1"
       offset="1" /></linearGradient><linearGradient
     x1="169.27542"
     y1="7.6329279"
     x2="169"
     y2="22.362183"
     id="linearGradient8068"
     xlink:href="#linearGradient5536"
     gradientUnits="userSpaceOnUse" /><linearGradient
     id="linearGradient5536"><stop
       id="stop5538"
       style="stop-color:#e6e6e6;stop-opacity:1"
       offset="0" /><stop
       id="stop5540"
       style="stop-color:#aaaaaa;stop-opacity:1"
       offset="1" /></linearGradient><linearGradient
     inkscape:collect="always"
     xlink:href="#linearGradient6935"
     id="linearGradient10465"
     gradientUnits="userSpaceOnUse"
     gradientTransform="matrix(1.2865905,0,0,1.2865905,2.6313671,-1434.2524)"
     x1="163.03883"
     y1="1276.6127"
     x2="178.20804"
     y2="1290.1803" /><linearGradient
     inkscape:collect="always"
     xlink:href="#linearGradient6935"
     id="linearGradient10439"
     gradientUnits="userSpaceOnUse"
     gradientTransform="matrix(1.2865905,0,0,1.2865905,2.6313671,-1434.2524)"
     x1="162.30716"
     y1="1300.1305"
     x2="174.5314"
     y2="1312.568" /><linearGradient
     inkscape:collect="always"
     xlink:href="#linearGradient6935"
     id="linearGradient10574"
     gradientUnits="userSpaceOnUse"
     gradientTransform="matrix(1.2865905,0,0,1.2865905,-70.149173,-1405.3041)"
     x1="219.03647"
     y1="1300.413"
     x2="234.08066"
     y2="1315.4572" /><linearGradient
     inkscape:collect="always"
     xlink:href="#linearGradient5536"
     id="linearGradient8078"
     gradientUnits="userSpaceOnUse"
     gradientTransform="matrix(1.2865905,0,0,1.2865905,-758.55119,-397.3041)"
     x1="219.03647"
     y1="1300.413"
     x2="234.08066"
     y2="1315.4572" /><linearGradient
     inkscape:collect="always"
     xlink:href="#linearGradient6935"
     id="linearGradient10570"
     gradientUnits="userSpaceOnUse"
     gradientTransform="matrix(1.5168235,0,0,1.4616527,46.664167,-3.1660959)"
     x1="110.58035"
     y1="209.98843"
     x2="121.60714"
     y2="221.46933" /><linearGradient
     inkscape:collect="always"
     xlink:href="#linearGradient5536"
     id="linearGradient8080"
     gradientUnits="userSpaceOnUse"
     gradientTransform="matrix(1.5168235,0,0,1.4616527,-641.73785,1004.8339)"
     x1="110.58035"
     y1="209.98843"
     x2="121.60714"
     y2="221.46933" /><linearGradient
     inkscape:collect="always"
     xlink:href="#linearGradient5536"
     id="linearGradient8120"
     gradientUnits="userSpaceOnUse"
     gradientTransform="matrix(1.2865906,0,0,1.2865906,-685.77066,-426.25241)"
     x1="164.4178"
     y1="1376.9011"
     x2="177.87065"
     y2="1389.3638" /><linearGradient
     inkscape:collect="always"
     xlink:href="#linearGradient5536"
     id="linearGradient8074"
     gradientUnits="userSpaceOnUse"
     gradientTransform="matrix(1.2865906,0,0,1.2865906,-758.55121,-359.67134)"
     x1="218.41147"
     y1="1352.7328"
     x2="234.38399"
     y2="1366.9677" /><linearGradient
     inkscape:collect="always"
     xlink:href="#linearGradient5536"
     id="linearGradient8076"
     gradientUnits="userSpaceOnUse"
     gradientTransform="matrix(1.2865905,0,0,1.2865905,-758.55119,-359.67133)"
     x1="218.47807"
     y1="1381.1764"
     x2="233.41148"
     y2="1394.7928" /><linearGradient
     inkscape:collect="always"
     xlink:href="#linearGradient5536"
     id="linearGradient8132"
     gradientUnits="userSpaceOnUse"
     gradientTransform="matrix(1.2865905,0,0,1.2865905,-685.77065,-426.2524)"
     x1="164.52249"
     y1="1482.4421"
     x2="173.59126"
     y2="1491.8171" /><linearGradient
     inkscape:collect="always"
     xlink:href="#linearGradient5536"
     id="linearGradient8089"
     gradientUnits="userSpaceOnUse"
     gradientTransform="matrix(1.2865905,0,0,1.2865905,-758.55119,-368.76891)"
     x1="219.30164"
     y1="1486.9673"
     x2="234.08066"
     y2="1501.9934" /><linearGradient
     inkscape:collect="always"
     xlink:href="#linearGradient5536"
     id="linearGradient8102"
     gradientUnits="userSpaceOnUse"
     gradientTransform="matrix(1.2865905,0,0,1.2865905,-758.55119,-368.76891)"
     x1="219.66147"
     y1="1511.9803"
     x2="233.47397"
     y2="1526.1053" /><linearGradient
     inkscape:collect="always"
     xlink:href="#linearGradient5536"
     id="linearGradient8070"
     gradientUnits="userSpaceOnUse"
     gradientTransform="matrix(1.2865905,0,0,1.2865905,-745.1559,1039.5398)"
     x1="207.53125"
     y1="497.0625"
     x2="223.33064"
     y2="511.40625" /><linearGradient
     inkscape:collect="always"
     xlink:href="#linearGradient5536"
     id="linearGradient8134"
     gradientUnits="userSpaceOnUse"
     gradientTransform="matrix(1.2865905,0,0,1.2865905,-745.58784,1039.5398)"
     x1="213.3046"
     y1="528.90295"
     x2="218.04774"
     y2="533.64612" /><linearGradient
     id="linearGradient8666"><stop
       style="stop-color:#4d4d4d;stop-opacity:1"
       offset="0"
       id="stop8668" /><stop
       style="stop-color:#f2f2f2;stop-opacity:1"
       offset="1"
       id="stop8670" /></linearGradient><linearGradient
     inkscape:collect="always"
     xlink:href="#linearGradient5536"
     id="linearGradient8072"
     gradientUnits="userSpaceOnUse"
     gradientTransform="matrix(1.2865905,0,0,1.2865905,-685.77065,-426.2524)"
     x1="162.40126"
     y1="1715.8209"
     x2="177.3087"
     y2="1731.1122" /><linearGradient
     y2="623.30597"
     x2="143.47119"
     y1="616.29657"
     x1="133.47649"
     gradientUnits="userSpaceOnUse"
     id="linearGradient7256"
     xlink:href="#linearGradient5536"
     inkscape:collect="always" /><linearGradient
     inkscape:collect="always"
     xlink:href="#linearGradient5536"
     id="linearGradient8128"
     gradientUnits="userSpaceOnUse"
     gradientTransform="matrix(0.8450207,0,0,0.8450207,-545.57259,1321.4721)"
     x1="85.380638"
     y1="627.67847"
     x2="101.473"
     y2="643.77081" /><linearGradient
     inkscape:collect="always"
     xlink:href="#linearGradient5536"
     id="linearGradient8082-9"
     gradientUnits="userSpaceOnUse"
     gradientTransform="matrix(1.2865906,0,0,1.2865906,-685.77066,-428.98167)"
     x1="162.17867"
     y1="1798.1134"
     x2="177.12527"
     y2="1813.0601" /><linearGradient
     inkscape:collect="always"
     xlink:href="#linearGradient5536"
     id="linearGradient8085"
     gradientUnits="userSpaceOnUse"
     x1="141.20929"
     y1="660.07629"
     x2="153.03252"
     y2="671.89954" /><linearGradient
     inkscape:collect="always"
     xlink:href="#linearGradient5536"
     id="linearGradient8122"
     gradientUnits="userSpaceOnUse"
     gradientTransform="matrix(1.2865905,0,0,1.2865905,-685.77065,-426.2524)"
     x1="165.08823"
     y1="1876.7526"
     x2="178.625"
     y2="1889.613" /><linearGradient
     inkscape:collect="always"
     xlink:href="#linearGradient5536"
     id="linearGradient8124"
     gradientUnits="userSpaceOnUse"
     gradientTransform="matrix(1.2865905,0,0,1.2865905,-685.77065,-426.2524)"
     x1="162.40982"
     y1="1901.9719"
     x2="175.64066"
     y2="1915.0975" /><linearGradient
     inkscape:collect="always"
     xlink:href="#linearGradient5536"
     id="linearGradient8108"
     gradientUnits="userSpaceOnUse"
     x1="145.26137"
     y1="761.07068"
     x2="153.68782"
     y2="770.12445" /><linearGradient
     inkscape:collect="always"
     xlink:href="#linearGradient5536"
     id="linearGradient8098"
     gradientUnits="userSpaceOnUse"
     gradientTransform="matrix(1.2865905,0,0,1.2865905,-685.77065,-427.86062)"
     x1="162.60486"
     y1="1951.8247"
     x2="176.73312"
     y2="1966.3646" /><linearGradient
     inkscape:collect="always"
     xlink:href="#linearGradient5536"
     id="linearGradient8062"
     gradientUnits="userSpaceOnUse"
     gradientTransform="matrix(1.2865905,0,0,1.2865905,-685.77065,-426.2524)"
     x1="163.15625"
     y1="1976.5"
     x2="173.59375"
     y2="1989.4375" /><linearGradient
     inkscape:collect="always"
     xlink:href="#linearGradient5536"
     id="linearGradient6887-2"
     gradientUnits="userSpaceOnUse"
     gradientTransform="matrix(1.5300371,0,0,1.5300371,-2826.1835,-1343.5438)"
     x1="1852.1112"
     y1="885.06458"
     x2="1856.1979"
     y2="889.15131" /></defs><sodipodi:namedview
   id="namedview1"
   pagecolor="#ffffff"
   bordercolor="#000000"
   borderopacity="0.25"
   inkscape:showpageshadow="2"
   inkscape:pageopacity="0.0"
   inkscape:pagecheckerboard="0"
   inkscape:deskcolor="#d1d1d1"
   inkscape:zoom="0.4725"
   inkscape:cx="507.93651"
   inkscape:cy="586.24339"
   inkscape:window-width="1440"
   inkscape:window-height="959"
   inkscape:window-x="20"
   inkscape:window-y="20"
   inkscape:window-maximized="0"
   inkscape:current-layer="Uploaded to svgrepo.com"
   showgrid="true"><inkscape:grid
     id="grid2"
     units="px"
     originx="0"
     originy="0"
     spacingx="0.04"
     spacingy="0.04"
     empcolor="#0099e5"
     empopacity="0.30196078"
     color="#0099e5"
     opacity="0.14901961"
     empspacing="5"
     dotted="false"
     gridanglex="30"
     gridanglez="30"
     visible="true" /></sodipodi:namedview>&#10;<style
   type="text/css"
   id="style1">&#10;	.sharpcorners_een{fill:#111918;}&#10;	.st0{fill:#111918;}&#10;</style>&#10;<path
   class="sharpcorners_een"
   d="M4,4h2v2H4V4z M8,6h4V4H8V6z M14,6h4V4h-4V6z M20,6h4V4h-4V6z M26,4v2h2V4H26z M8,28h4v-2H8V28z   M14,28h4v-2h-4V28z M20,28h4v-2h-4V28z M26,12h2V8h-2V12z M26,18h2v-4h-2V18z M26,24h2v-4h-2V24z M26,28h2v-2h-2V28z M4,12h2V8H4  V12z M4,18h2v-4H4V18z M4,24h2v-4H4V24z M4,28h2v-2H4V28z"
   id="path1"
   style="fill:#cacaca;fill-opacity:1" />&#10;<path
   inkscape:connector-curvature="0"
   id="path5788"
   d="m 13.982964,19.603023 c -0.306979,-0.01745 -0.56811,-0.0698 -0.862874,-0.173717 -0.187837,-0.06663 -0.46499,-0.208302 -0.636645,-0.327127 -0.05394,-0.03649 -0.101533,-0.06821 -0.106293,-0.06821 -0.0075,0 -0.0349,-0.02538 -0.06981,-0.0587 -0.03332,-0.03173 -0.09201,-0.08567 -0.128503,-0.118987 -0.103119,-0.09201 -0.323796,-0.360443 -0.388047,-0.471337 -0.03173,-0.05394 -0.08567,-0.16039 -0.122157,-0.23654 -0.252406,-0.537968 -0.296192,-1.196347 -0.128503,-1.931542 0.04442,-0.194818 0.152299,-0.556688 0.198941,-0.669486 0.01429,-0.03332 0.04601,-0.114224 0.07139,-0.177048 0.06346,-0.16277 0.265414,-0.589527 0.325382,-0.685984 0.02697,-0.04442 0.04918,-0.08567 0.04918,-0.09043 0,-0.008 0.0349,-0.06187 0.07774,-0.128503 0.04283,-0.06504 0.0936,-0.145954 0.114224,-0.180062 0.02063,-0.03332 0.05552,-0.08567 0.07774,-0.114225 0.02221,-0.02855 0.04283,-0.06029 0.04601,-0.06981 0.0075,-0.0093 0.01555,-0.02855 0.03014,-0.03966 0.01369,-0.01333 0.04918,-0.0587 0.08091,-0.09995 0.0698,-0.09519 0.428343,-0.507666 0.438179,-0.505128 0.0075,0 0.05394,-0.04601 0.111052,-0.103119 0.05711,-0.0587 0.117398,-0.115811 0.133262,-0.126917 0.01555,-0.01198 0.05394,-0.04601 0.0825,-0.07456 0.03014,-0.02855 0.09201,-0.0825 0.139608,-0.117398 0.0476,-0.0349 0.123744,-0.0936 0.170069,-0.128503 0.249073,-0.187361 0.731356,-0.466418 0.994549,-0.575408 0.768479,-0.317926 1.484606,-0.409305 2.056365,-0.262399 0.268111,0.06981 0.533842,0.182442 0.669643,0.285879 0.02221,0.01586 0.04283,0.03014 0.04918,0.03014 0.0075,0 0.06187,0.04283 0.12533,0.09519 0.126917,0.10312 0.305869,0.286673 0.386461,0.394711 0.02697,0.03649 0.06504,0.08726 0.08408,0.112638 0.03966,0.05394 0.17451,0.28937 0.17451,0.307773 0,0.008 0.0075,0.01331 0.01367,0.01331 0.0075,0 0.02063,0.01904 0.02855,0.04284 0.0081,0.0238 0.03173,0.08408 0.05235,0.134848 0.06504,0.163247 0.106292,0.275726 0.118985,0.331094 l 0.01306,0.05394 0.05394,-0.09201 c 0.03014,-0.05077 0.07298,-0.123744 0.09519,-0.161661 0.0238,-0.03807 0.04601,-0.07615 0.05394,-0.08567 0.0075,-0.0086 0.02538,-0.03649 0.03966,-0.06187 0.0476,-0.08249 0.153886,-0.259227 0.224801,-0.374403 0.03966,-0.06187 0.06981,-0.118984 0.06981,-0.126917 0,-0.008 0.0075,-0.01331 0.01306,-0.01331 0.0075,0 0.01555,-0.01265 0.02221,-0.02697 0.01058,-0.03332 0.06504,-0.131676 0.07932,-0.142781 0.01369,-0.01065 0.101533,-0.149127 0.101533,-0.161184 0,-0.008 0.0075,-0.01745 0.01493,-0.02855 0.0349,-0.04442 0.201004,-0.31983 0.201004,-0.333949 0,-0.01065 0.308565,-0.01531 0.928711,-0.01531 0.53067,0 0.92665,0.008 0.923952,0.01398 -0.0081,0.0238 -0.177524,0.30809 -0.419458,0.705973 -0.05235,0.08726 -0.09519,0.161501 -0.09519,0.166102 0,0.008 -0.0075,0.01586 -0.01493,0.02697 -0.0081,0.01 -0.04124,0.06346 -0.07456,0.118984 -0.03173,0.05394 -0.07615,0.128503 -0.09519,0.161502 -0.02063,0.03332 -0.04918,0.08567 -0.06504,0.115811 -0.0143,0.03014 -0.03173,0.05711 -0.03649,0.06187 -0.0075,0.008 -0.02538,0.0349 -0.04601,0.0698 -0.145954,0.238286 -0.228291,0.377577 -0.228291,0.384081 0,0.008 -0.0238,0.0476 -0.05394,0.09678 -0.128503,0.208618 -0.189582,0.31269 -0.189582,0.326017 0,0.008 -0.0075,0.01586 -0.0118,0.01903 -0.01307,0.008 -0.189898,0.29175 -0.230036,0.370597 -0.01367,0.02855 -0.06187,0.109465 -0.106293,0.180856 -0.04442,0.07139 -0.0825,0.138022 -0.08408,0.145954 0,0.0087 -0.01306,0.02855 -0.02538,0.04124 -0.01243,0.01465 -0.03014,0.03966 -0.03807,0.05552 -0.0087,0.01531 -0.0349,0.0587 -0.05711,0.09677 -0.0238,0.03649 -0.06663,0.109466 -0.09677,0.159915 -0.03014,0.05077 -0.07298,0.12057 -0.09677,0.153886 -0.0238,0.03332 -0.06504,0.09995 -0.09201,0.145954 l -0.04918,0.08408 0.0349,0.123744 c 0.09677,0.343784 0.352986,1.190318 0.377418,1.246637 0.0075,0.01586 0.02538,0.07298 0.04283,0.123744 0.115811,0.368375 0.211158,0.597459 0.314753,0.754201 0.06346,0.09519 0.299523,0.346323 0.326334,0.346323 0.01057,0 0.02221,0.008 0.0238,0.01131 0.01057,0.02538 0.212903,0.126917 0.31396,0.157059 0.250977,0.07456 0.590955,0.09677 0.924428,0.06029 0.08567,-0.0093 0.15928,-0.01331 0.164357,-0.008 0.0075,0.008 -0.0075,0.02538 -0.02221,0.04442 -0.01745,0.01904 -0.03173,0.04124 -0.03173,0.04601 0,0.01745 -0.09836,0.117397 -0.114224,0.117397 -0.0075,0 -0.01904,0.0093 -0.02538,0.02221 -0.01243,0.02221 -0.09519,0.09201 -0.247804,0.20846 -0.106293,0.08091 -0.349496,0.210999 -0.489898,0.262082 -0.297619,0.10788 -0.7707,0.125331 -1.092909,0.03807 -0.6982,-0.188154 -1.134317,-0.654572 -1.387991,-1.48413 -0.04283,-0.139608 -0.08884,-0.293811 -0.101533,-0.342357 -0.01307,-0.04918 -0.02697,-0.08884 -0.03332,-0.08725 -0.0075,0 -0.04442,0.04283 -0.08567,0.09677 -0.181332,0.228609 -0.261766,0.31872 -0.450395,0.504494 -0.236065,0.232574 -0.512902,0.461659 -0.714064,0.591113 -0.01306,0.0087 -0.0349,0.02538 -0.04918,0.03966 -0.01369,0.01331 -0.07298,0.05077 -0.130089,0.08249 -0.161502,0.09043 -0.49783,0.270491 -0.506079,0.270491 -0.0075,0 -0.04283,0.01586 -0.08567,0.03807 -0.141195,0.06981 -0.485297,0.190534 -0.718347,0.253516 -0.335377,0.09043 -0.56462,0.123744 -1.022948,0.144367 -0.05552,0 -0.188153,0 -0.294763,-0.008 z m 0.330141,-0.94521 c 0.122157,-0.0238 0.224008,-0.05394 0.316815,-0.09519 0.02697,-0.01331 0.06346,-0.02855 0.07932,-0.03332 0.08726,-0.0349 0.367265,-0.193548 0.380908,-0.215758 0.0075,-0.008 0.03332,-0.02697 0.06504,-0.04601 0.06504,-0.03807 0.161819,-0.109466 0.244315,-0.178159 0.170226,-0.142782 0.220358,-0.187995 0.261606,-0.233844 0.0238,-0.02855 0.05077,-0.05077 0.05711,-0.05077 0.0075,0 0.03173,-0.0238 0.05394,-0.04918 0.0238,-0.02855 0.104706,-0.111052 0.182442,-0.187043 0.07615,-0.07615 0.139608,-0.142781 0.139608,-0.149127 0,-0.008 0.04601,-0.06187 0.09995,-0.118984 0.05553,-0.0587 0.09995,-0.111053 0.09995,-0.115811 0,-0.008 0.03332,-0.04601 0.07298,-0.09043 0.09995,-0.109465 0.401532,-0.512108 0.401532,-0.534001 0,-0.01 0.0093,-0.02221 0.02221,-0.02538 0.01243,-0.008 0.02221,-0.01531 0.02221,-0.0238 0,-0.008 0.01367,-0.03014 0.03014,-0.04918 0.03649,-0.04124 0.260813,-0.375038 0.285562,-0.424535 0.01,-0.01904 0.04125,-0.06981 0.07139,-0.112639 0.03014,-0.04124 0.06663,-0.101533 0.0825,-0.133262 0.01555,-0.03173 0.04759,-0.09201 0.0698,-0.133263 0.05552,-0.101532 0.05235,-0.195768 -0.0081,-0.461658 -0.09677,-0.425488 -0.268746,-1.026596 -0.348703,-1.223634 -0.01491,-0.03807 -0.03966,-0.09677 -0.05235,-0.128503 -0.05711,-0.142781 -0.160233,-0.349496 -0.230671,-0.462769 -0.07456,-0.120571 -0.307456,-0.377894 -0.341406,-0.377894 -0.0093,0 -0.01904,-0.008 -0.02221,-0.01198 -0.0087,-0.02221 -0.191168,-0.109465 -0.280168,-0.133262 -0.131676,-0.0349 -0.307455,-0.03014 -0.468005,0.01331 -0.233684,0.06346 -0.514328,0.225594 -0.688998,0.397883 -0.01492,0.01464 -0.03173,0.02697 -0.0349,0.02697 -0.02062,0 -0.369802,0.365044 -0.445476,0.46515 -0.0238,0.03173 -0.06504,0.08408 -0.09043,0.115811 -0.08249,0.101533 -0.175144,0.232098 -0.175144,0.249232 0,0.0093 -0.0075,0.01586 -0.01244,0.01586 -0.0075,0 -0.03966,0.04601 -0.07615,0.101533 -0.0349,0.05712 -0.07298,0.117398 -0.08408,0.136436 -0.09836,0.157059 -0.138022,0.224166 -0.163088,0.277312 -0.01555,0.03332 -0.03332,0.06504 -0.03966,0.06981 -0.03173,0.0238 -0.401691,0.817976 -0.401691,0.859541 0,0.008 -0.01367,0.04125 -0.02855,0.07615 -0.01492,0.0349 -0.06187,0.169751 -0.101533,0.299205 -0.254309,0.825909 -0.292701,1.401634 -0.130089,1.959226 0.06187,0.213855 0.218455,0.441352 0.387254,0.563192 0.22956,0.165944 0.512584,0.228608 0.793228,0.175621 z"
   style="display:inline;fill:#cacaca;fill-opacity:1;stroke-width:0.634582"
   inkscape:export-filename="C:\Users\angel\Desktop\rect4645.png"
   inkscape:export-xdpi="90"
   inkscape:export-ydpi="90" /></svg>
