<?xml version="1.0" encoding="UTF-8" standalone="no"?>
<!-- Uploaded to: SVG Repo, www.svgrepo.com, Generator: SVG Repo Mixer Tools -->

<svg
   width="800px"
   height="800px"
   viewBox="0 0 15 15"
   fill="none"
   version="1.1"
   id="svg1"
   sodipodi:docname="clear_layer.svg"
   inkscape:version="1.3 (0e150ed6c4, 2023-07-21)"
   xmlns:inkscape="http://www.inkscape.org/namespaces/inkscape"
   xmlns:sodipodi="http://sodipodi.sourceforge.net/DTD/sodipodi-0.dtd"
   xmlns="http://www.w3.org/2000/svg"
   xmlns:svg="http://www.w3.org/2000/svg">
  <defs
     id="defs1" />
  <sodipodi:namedview
     id="namedview1"
     pagecolor="#ffffff"
     bordercolor="#000000"
     borderopacity="0.25"
     inkscape:showpageshadow="2"
     inkscape:pageopacity="0.0"
     inkscape:pagecheckerboard="0"
     inkscape:deskcolor="#d1d1d1"
     inkscape:zoom="0.66821591"
     inkscape:cx="535.75498"
     inkscape:cy="399.57145"
     inkscape:window-width="1920"
     inkscape:window-height="959"
     inkscape:window-x="0"
     inkscape:window-y="0"
     inkscape:window-maximized="1"
     inkscape:current-layer="svg1" />
  <rect
     style="fill:#c4c4c4;fill-opacity:1;stroke:none;stroke-width:0.624994"
     id="rect1"
     width="15"
     height="15"
     x="0"
     y="0" />
  <path
     opacity=".25"
     fill-rule="evenodd"
     clip-rule="evenodd"
     d="M0 0H3V3H0V0ZM6 3H3V6H0V9H3V12H0V15H3V12H6V15H9V12H12V15H15V12H12V9H15V6H12V3H15V0H12V3H9V0H6V3ZM6 6V3H9V6H6ZM6 9H3V6H6V9ZM9 9V6H12V9H9ZM9 9H6V12H9V9Z"
     fill="#000000"
     id="path1" />
</svg>
