<?xml version="1.0" encoding="UTF-8" standalone="no"?>
<!-- Uploaded to: SVG Repo, www.svgrepo.com, Generator: SVG Repo Mixer Tools -->

<svg
   version="1.1"
   id="Uploaded to svgrepo.com"
   width="800px"
   height="800px"
   viewBox="0 0 32 32"
   xml:space="preserve"
   sodipodi:docname="toolbar_icon.svg"
   inkscape:version="1.3 (0e150ed6c4, 2023-07-21)"
   xmlns:inkscape="http://www.inkscape.org/namespaces/inkscape"
   xmlns:sodipodi="http://sodipodi.sourceforge.net/DTD/sodipodi-0.dtd"
   xmlns="http://www.w3.org/2000/svg"
   xmlns:svg="http://www.w3.org/2000/svg"><defs
   id="defs1" /><sodipodi:namedview
   id="namedview1"
   pagecolor="#ffffff"
   bordercolor="#000000"
   borderopacity="0.25"
   inkscape:showpageshadow="2"
   inkscape:pageopacity="0.0"
   inkscape:pagecheckerboard="0"
   inkscape:deskcolor="#d1d1d1"
   inkscape:zoom="0.945"
   inkscape:cx="399.4709"
   inkscape:cy="400"
   inkscape:window-width="1920"
   inkscape:window-height="959"
   inkscape:window-x="0"
   inkscape:window-y="0"
   inkscape:window-maximized="1"
   inkscape:current-layer="Uploaded to svgrepo.com" />&#10;<style
   type="text/css"
   id="style1">&#10;	.sharpcorners_een{fill:#111918;}&#10;	.st0{fill:#111918;}&#10;</style>&#10;<path
   class="sharpcorners_een"
   d="M4,4h2v2H4V4z M8,6h4V4H8V6z M14,6h4V4h-4V6z M20,6h4V4h-4V6z M26,4v2h2V4H26z M8,28h4v-2H8V28z   M14,28h4v-2h-4V28z M20,28h4v-2h-4V28z M26,12h2V8h-2V12z M26,18h2v-4h-2V18z M26,24h2v-4h-2V24z M26,28h2v-2h-2V28z M4,12h2V8H4  V12z M4,18h2v-4H4V18z M4,24h2v-4H4V24z M4,28h2v-2H4V28z"
   id="path1"
   style="fill:#cacaca;fill-opacity:1" />&#10;</svg>
