<?xml version="1.0" encoding="UTF-8" standalone="no"?>
<!-- Uploaded to: SVG Repo, www.svgrepo.com, Generator: SVG Repo Mixer Tools -->

<svg
   version="1.1"
   id="Uploaded to svgrepo.com"
   width="800px"
   height="800px"
   viewBox="0 0 32 32"
   xml:space="preserve"
   sodipodi:docname="select_invert.svg"
   inkscape:version="1.3 (0e150ed6c4, 2023-07-21)"
   xmlns:inkscape="http://www.inkscape.org/namespaces/inkscape"
   xmlns:sodipodi="http://sodipodi.sourceforge.net/DTD/sodipodi-0.dtd"
   xmlns="http://www.w3.org/2000/svg"
   xmlns:svg="http://www.w3.org/2000/svg"><defs
   id="defs1" /><sodipodi:namedview
   id="namedview1"
   pagecolor="#ffffff"
   bordercolor="#000000"
   borderopacity="0.25"
   inkscape:showpageshadow="2"
   inkscape:pageopacity="0.0"
   inkscape:pagecheckerboard="0"
   inkscape:deskcolor="#d1d1d1"
   inkscape:zoom="0.4725"
   inkscape:cx="161.90476"
   inkscape:cy="588.35979"
   inkscape:window-width="1920"
   inkscape:window-height="959"
   inkscape:window-x="0"
   inkscape:window-y="0"
   inkscape:window-maximized="1"
   inkscape:current-layer="Uploaded to svgrepo.com"
   showgrid="true"><inkscape:grid
     id="grid2"
     units="px"
     originx="0"
     originy="0"
     spacingx="0.04"
     spacingy="0.04"
     empcolor="#0099e5"
     empopacity="0.30196078"
     color="#0099e5"
     opacity="0.14901961"
     empspacing="5"
     dotted="false"
     gridanglex="30"
     gridanglez="30"
     visible="true" /></sodipodi:namedview>&#10;<style
   type="text/css"
   id="style1">&#10;	.sharpcorners_een{fill:#111918;}&#10;	.st0{fill:#111918;}&#10;</style>&#10;<path
   class="sharpcorners_een"
   d="M4,4h2v2H4V4z M8,6h4V4H8V6z M14,6h4V4h-4V6z M20,6h4V4h-4V6z M26,4v2h2V4H26z M8,28h4v-2H8V28z   M14,28h4v-2h-4V28z M20,28h4v-2h-4V28z M26,12h2V8h-2V12z M26,18h2v-4h-2V18z M26,24h2v-4h-2V24z M26,28h2v-2h-2V28z M4,12h2V8H4  V12z M4,18h2v-4H4V18z M4,24h2v-4H4V24z M4,28h2v-2H4V28z"
   id="path1"
   style="fill:#cacaca;fill-opacity:1" /><path
   class="sharpcorners_een"
   d="m 10.399998,10.399999 h 0.933334 v 0.933333 h -0.933334 z m 1.866668,0.933333 h 1.866666 v -0.933333 h -1.866666 z m 2.8,0 h 1.866667 v -0.933333 h -1.866667 z m 2.8,0 h 1.866667 v -0.933333 h -1.866667 z m 2.8,-0.933333 v 0.933333 H 21.6 v -0.933333 z m -8.4,11.200001 h 1.866666 v -0.933333 h -1.866666 z m 2.8,0 h 1.866667 v -0.933333 h -1.866667 z m 2.8,0 h 1.866667 v -0.933333 h -1.866667 z m 2.8,-7.466667 H 21.6 v -1.866667 h -0.933334 z m 0,2.800001 H 21.6 v -1.866667 h -0.933334 z m 0,2.8 H 21.6 v -1.866667 h -0.933334 z m 0,1.866666 H 21.6 V 20.666667 H 20.666666 Z M 10.399998,14.133333 h 0.933334 v -1.866667 h -0.933334 z m 0,2.800001 h 0.933334 v -1.866667 h -0.933334 z m 0,2.8 h 0.933334 v -1.866667 h -0.933334 z m 0,1.866666 h 0.933334 v -0.933333 h -0.933334 z"
   id="path1-5"
   style="fill:#cacaca;fill-opacity:1;stroke-width:0.466667" />&#10;</svg>
