<?xml version="1.0" encoding="UTF-8" standalone="no"?>
<svg
   class="svg-icon"
   style="width: 1em; height: 1em;vertical-align: middle;fill: currentColor;overflow: hidden;"
   viewBox="0 0 1024 1024"
   version="1.1"
   id="svg1"
   sodipodi:docname="color-palette-6.svg"
   inkscape:version="1.3 (0e150ed6c4, 2023-07-21)"
   xmlns:inkscape="http://www.inkscape.org/namespaces/inkscape"
   xmlns:sodipodi="http://sodipodi.sourceforge.net/DTD/sodipodi-0.dtd"
   xmlns="http://www.w3.org/2000/svg"
   xmlns:svg="http://www.w3.org/2000/svg">
  <defs
     id="defs1" />
  <sodipodi:namedview
     id="namedview1"
     pagecolor="#ffffff"
     bordercolor="#000000"
     borderopacity="0.25"
     inkscape:showpageshadow="2"
     inkscape:pageopacity="0.0"
     inkscape:pagecheckerboard="0"
     inkscape:deskcolor="#d1d1d1"
     inkscape:zoom="0.79394531"
     inkscape:cx="511.37023"
     inkscape:cy="512"
     inkscape:window-width="1920"
     inkscape:window-height="1013"
     inkscape:window-x="0"
     inkscape:window-y="0"
     inkscape:window-maximized="1"
     inkscape:current-layer="svg1" />
  <path
     d="M833.706667 216.746667A452.693333 452.693333 0 0 0 508.16 85.333333a426.666667 426.666667 0 0 0-2.133333 853.333334 110.08 110.08 0 0 0 107.946666-80.64 107.52 107.52 0 0 0-24.32-97.28 21.333333 21.333333 0 0 1 15.786667-35.413334h70.4A262.4 262.4 0 0 0 938.666667 483.413333a361.813333 361.813333 0 0 0-104.96-266.666666z m-541.866667 412.16a64 64 0 1 1 17.066667-88.746667 63.573333 63.573333 0 0 1-17.066667 88.746667zM354.133333 394.666667a64 64 0 1 1-23.466666-85.333334 64 64 0 0 1 23.466666 85.333334zM469.333333 298.666667a64 64 0 1 1 64-64A64 64 0 0 1 469.333333 298.666667z m245.333334 34.133333a64 64 0 1 1 23.466666-85.333333 64 64 0 0 1-23.466666 85.333333z"
     id="path1"
     style="fill:#ffffff;fill-opacity:1;stroke:#000000;stroke-opacity:1" />
</svg>
